<svg xmlns="http://www.w3.org/2000/svg" viewBox="0 0 100 100"><rect width="100" height="100" rx="20" fill="#0a0c10"/><circle cx="50.0" cy="50.0" r="47.4" fill="none" stroke="#d4af6a" stroke-width="3"/><path d="M75.6 46.6Q75.3 48.3 74.4 49.7Q73.5 51.0 72.2 52.0Q70.9 52.9 69.2 53.4Q67.5 53.9 65.6 53.9Q63.9 53.9 62.8 53.6Q61.7 53.4 60.5 52.8L61.1 51.4Q62.0 51.9 62.9 52.2Q63.8 52.4 64.8 52.4Q66.4 52.4 67.7 51.7Q68.9 51.0 69.8 49.7Q70.6 48.3 70.9 46.2Q71.3 44.2 70.9 42.8Q70.5 41.5 69.5 40.8Q68.5 40.2 67.1 40.2Q66.2 40.2 65.6 40.6Q65.1 41.1 64.8 42.0Q64.8 42.2 64.5 43.1Q64.3 44.0 64.0 45.3Q63.6 46.6 63.2 48.1Q62.8 49.7 62.4 51.3Q62.0 52.9 61.7 54.3Q61.3 55.8 61.0 56.8Q60.7 57.9 60.6 58.4Q60.4 59.0 60.6 59.3Q60.7 59.6 61.0 59.6L62.3 59.9Q62.7 59.9 62.8 60.1Q63.0 60.3 63.0 60.6Q63.0 60.9 62.7 61.2Q62.4 61.4 61.9 61.4H53.9Q53.3 61.4 53.1 61.2Q53.0 61.0 53.0 60.7Q53.0 60.4 53.2 60.1Q53.4 59.9 53.8 59.8L54.6 59.6Q55.1 59.5 55.3 59.3Q55.5 59.1 55.7 58.5Q55.9 58.0 56.2 57.0Q56.5 55.9 56.9 54.4Q57.3 53.0 57.7 51.4Q58.1 49.7 58.5 48.1Q58.9 46.5 59.3 45.1Q59.7 43.7 59.9 42.7Q60.2 41.7 60.2 41.3Q60.3 40.9 60.2 40.7Q60.0 40.5 59.7 40.4L58.8 40.2Q58.5 40.0 58.3 39.9Q58.2 39.7 58.2 39.5Q58.2 39.1 58.5 38.8Q58.8 38.6 59.3 38.6H67.9Q69.9 38.6 71.5 39.2Q73.1 39.8 74.1 40.8Q75.2 41.9 75.6 43.3Q76.0 44.8 75.6 46.6Z" fill="#d4af6a"/><path d="M44.9 58.7Q44.9 59.0 45.0 59.3Q45.1 59.5 45.5 59.6L46.3 59.8Q46.6 59.9 46.8 60.1Q47.0 60.3 47.0 60.6Q47.0 61.0 46.7 61.2Q46.4 61.4 45.9 61.4H38.5Q37.9 61.4 37.7 61.2Q37.5 61.0 37.5 60.7Q37.5 60.4 37.8 60.2Q38.0 59.9 38.3 59.8L39.2 59.6Q39.7 59.5 39.9 59.3Q40.2 59.0 40.3 58.5Q40.5 57.9 40.8 56.8Q41.1 55.8 41.5 54.4Q41.8 53.0 42.2 51.5Q42.6 50.0 43.0 48.4Q43.4 46.9 43.8 45.5Q44.2 44.2 44.4 43.1Q44.7 42.0 44.8 41.4Q44.9 40.9 44.8 40.7Q44.7 40.5 44.3 40.4L43.4 40.2Q43.1 40.0 42.9 39.9Q42.8 39.7 42.8 39.4Q42.8 39.1 43.1 38.8Q43.4 38.6 44.0 38.6H51.4Q51.9 38.6 52.1 38.8Q52.3 39.0 52.3 39.3Q52.3 39.7 52.0 39.8Q51.8 40.0 51.4 40.2L50.5 40.4Q50.1 40.5 49.9 40.7Q49.6 41.0 49.5 41.4Q49.3 42.1 49.0 43.2Q48.6 44.4 48.2 45.9Q47.8 47.4 47.4 49.0Q47.0 50.6 46.6 52.1Q46.2 53.7 45.8 55.1Q45.5 56.4 45.2 57.4Q45.0 58.3 44.9 58.7ZM49.1 49.8 52.6 46.6 56.6 57.0Q56.9 57.8 57.2 58.2Q57.5 58.7 58.1 58.7Q58.4 58.7 58.6 58.5Q58.9 58.3 59.1 58.0Q59.5 57.7 59.9 57.8Q60.1 57.9 60.3 58.1Q60.4 58.4 60.2 58.9Q59.8 59.8 59.1 60.4Q58.5 61.1 57.6 61.5Q56.8 61.8 55.8 61.8Q54.5 61.8 53.8 61.2Q53.1 60.6 52.6 59.2ZM45.2 54.9 44.7 53.4 56.9 40.8Q57.8 39.8 58.6 39.3Q59.3 38.7 60.0 38.4Q60.8 38.2 61.5 38.2Q62.7 38.2 63.3 38.8Q63.9 39.5 63.8 40.4Q63.8 41.5 63.1 42.0Q62.4 42.5 61.4 42.5Q60.7 42.5 60.2 42.3Q59.6 42.1 59.0 42.1Q58.3 42.1 57.6 42.5Q56.9 42.9 56.2 43.7Z" fill="#d4af6a" stroke="#0a0c10" stroke-width="0.7" paint-order="stroke" stroke-linejoin="round"/><path d="M34.4 61.8Q33.0 61.8 32.1 61.5Q31.2 61.3 30.6 60.9Q30.0 60.6 29.7 60.3Q29.3 60.0 29.1 60.0Q28.9 60.0 28.6 60.3Q28.4 60.5 28.0 60.9Q27.7 61.2 27.4 61.4Q27.1 61.7 26.8 61.7Q26.3 61.7 26.1 61.4Q25.9 61.2 25.9 60.6L26.6 54.9Q26.7 54.3 26.9 54.0Q27.2 53.7 27.6 53.7Q28.0 53.7 28.3 54.0Q28.5 54.3 28.7 54.8L29.1 56.5Q29.4 58.3 30.6 59.2Q31.8 60.1 33.5 60.1Q34.5 60.1 35.3 59.8Q36.1 59.4 36.6 58.7Q37.1 58.0 37.3 57.1Q37.5 55.7 36.8 54.5Q36.0 53.3 33.9 51.9Q31.4 50.4 30.4 48.8Q29.4 47.1 29.6 45.0Q29.8 43.2 30.9 41.6Q32.0 40.1 33.9 39.1Q35.8 38.2 38.6 38.2Q40.9 38.2 42.5 38.9Q44.1 39.7 45.0 40.9Q45.8 42.1 45.7 43.4Q45.7 44.3 45.2 44.9Q44.7 45.5 43.9 45.5Q43.2 45.5 42.8 45.1Q42.4 44.7 42.1 43.8L41.7 42.6Q41.3 41.1 40.5 40.4Q39.6 39.7 38.3 39.7Q37.1 39.7 36.2 40.2Q35.2 40.7 34.7 41.5Q34.2 42.3 34.0 43.3Q33.8 44.8 34.6 46.0Q35.4 47.2 37.5 48.6Q39.4 49.9 40.5 51.1Q41.5 52.2 41.9 53.4Q42.2 54.6 42.1 56.0Q41.9 57.7 40.9 59.0Q39.9 60.3 38.2 61.1Q36.6 61.8 34.4 61.8Z" fill="#d4af6a" stroke="#0a0c10" stroke-width="0.7" paint-order="stroke" stroke-linejoin="round"/></svg>