<svg xmlns="http://www.w3.org/2000/svg" viewBox="0 0 88 60"><path d="M84.0 24.6Q83.5 27.3 82.1 29.5Q80.7 31.6 78.6 33.1Q76.6 34.6 74.0 35.3Q71.4 36.1 68.4 36.1Q65.7 36.1 63.9 35.7Q62.2 35.2 60.4 34.3L61.4 32.1Q62.7 32.9 64.1 33.4Q65.5 33.8 67.1 33.8Q69.6 33.8 71.5 32.7Q73.5 31.6 74.8 29.5Q76.2 27.3 76.7 24.1Q77.2 20.9 76.6 18.8Q75.9 16.7 74.4 15.7Q72.9 14.7 70.7 14.7Q69.2 14.7 68.4 15.4Q67.5 16.0 67.1 17.5Q67.0 17.9 66.7 19.2Q66.4 20.6 65.8 22.6Q65.3 24.7 64.7 27.1Q64.0 29.5 63.4 32.0Q62.8 34.5 62.2 36.8Q61.6 39.0 61.2 40.7Q60.8 42.4 60.6 43.1Q60.3 44.1 60.5 44.5Q60.7 44.9 61.2 45.0L63.2 45.4Q63.8 45.5 64.0 45.8Q64.3 46.1 64.3 46.5Q64.3 47.1 63.8 47.4Q63.4 47.8 62.6 47.8H50.0Q49.2 47.8 48.9 47.5Q48.6 47.2 48.6 46.7Q48.6 46.2 49.0 45.8Q49.3 45.5 49.9 45.3L51.1 45.0Q51.9 44.9 52.3 44.5Q52.6 44.1 52.9 43.3Q53.2 42.6 53.6 40.9Q54.1 39.2 54.7 36.9Q55.3 34.7 56.0 32.1Q56.7 29.6 57.3 27.1Q58.0 24.5 58.5 22.3Q59.1 20.2 59.5 18.6Q59.8 17.1 59.9 16.5Q60.1 15.8 59.9 15.5Q59.7 15.2 59.2 15.0L57.7 14.6Q57.3 14.5 57.0 14.2Q56.8 14.0 56.8 13.6Q56.8 12.9 57.2 12.6Q57.7 12.2 58.5 12.2H72.0Q75.1 12.2 77.6 13.1Q80.0 14.0 81.7 15.7Q83.3 17.3 83.9 19.6Q84.5 21.9 84.0 24.6Z" fill="#d4af6a"/><path d="M36.1 43.5Q36.0 44.1 36.2 44.5Q36.4 44.8 37.0 45.0L38.2 45.3Q38.7 45.5 39.0 45.8Q39.3 46.1 39.3 46.6Q39.3 47.1 38.8 47.5Q38.4 47.8 37.6 47.8H26.0Q25.2 47.8 24.9 47.5Q24.5 47.2 24.5 46.7Q24.5 46.2 24.9 45.8Q25.2 45.5 25.8 45.4L27.2 45.0Q27.9 44.9 28.3 44.5Q28.6 44.0 28.9 43.2Q29.2 42.3 29.6 40.6Q30.1 39.0 30.7 36.8Q31.3 34.7 31.9 32.3Q32.5 29.9 33.2 27.6Q33.8 25.2 34.3 23.0Q34.9 20.9 35.3 19.2Q35.7 17.5 35.9 16.5Q36.1 15.8 35.9 15.5Q35.7 15.1 35.1 15.0L33.8 14.6Q33.2 14.5 33.0 14.2Q32.7 13.9 32.7 13.5Q32.7 12.9 33.2 12.6Q33.7 12.2 34.6 12.2H46.2Q46.9 12.2 47.2 12.5Q47.6 12.8 47.6 13.3Q47.6 13.9 47.2 14.1Q46.8 14.4 46.2 14.7L44.8 15.1Q44.2 15.2 43.8 15.5Q43.4 15.9 43.2 16.7Q42.9 17.7 42.4 19.5Q41.9 21.3 41.2 23.6Q40.6 25.9 40.0 28.4Q39.3 30.9 38.6 33.3Q38.0 35.8 37.5 37.9Q36.9 40.0 36.6 41.5Q36.2 43.0 36.1 43.5ZM42.5 29.7 48.1 24.7 54.3 40.9Q54.7 42.2 55.2 42.9Q55.7 43.5 56.6 43.5Q57.1 43.5 57.4 43.3Q57.8 43.0 58.2 42.5Q58.8 42.0 59.4 42.2Q59.8 42.3 60.0 42.7Q60.2 43.1 59.9 43.8Q59.3 45.3 58.3 46.3Q57.2 47.3 55.9 47.9Q54.5 48.5 53.0 48.5Q51.0 48.5 49.9 47.5Q48.8 46.5 48.1 44.4ZM36.5 37.6 35.8 35.3 54.7 15.6Q56.2 14.2 57.4 13.2Q58.5 12.3 59.7 11.9Q60.8 11.5 62.0 11.5Q63.8 11.5 64.8 12.5Q65.8 13.6 65.6 15.1Q65.5 16.7 64.4 17.5Q63.3 18.4 61.7 18.4Q60.7 18.4 59.8 18.1Q59.0 17.7 58.0 17.7Q57.0 17.7 55.9 18.3Q54.8 18.9 53.6 20.1Z" fill="#d4af6a" stroke="#0a0c10" stroke-width="1.2" paint-order="stroke" stroke-linejoin="round"/><path d="M19.7 48.4Q17.5 48.4 16.1 48.0Q14.6 47.6 13.7 47.0Q12.8 46.5 12.3 46.1Q11.8 45.6 11.4 45.6Q11.1 45.6 10.7 46.0Q10.2 46.4 9.8 46.9Q9.3 47.4 8.8 47.8Q8.3 48.2 7.8 48.2Q7.1 48.2 6.7 47.8Q6.4 47.4 6.4 46.5L7.5 37.7Q7.6 36.8 8.0 36.3Q8.4 35.8 9.1 35.8Q9.7 35.8 10.1 36.3Q10.5 36.7 10.8 37.5L11.3 40.1Q11.8 42.9 13.7 44.3Q15.6 45.8 18.2 45.8Q19.9 45.8 21.1 45.2Q22.4 44.6 23.1 43.6Q23.9 42.5 24.1 41.1Q24.5 38.9 23.4 37.0Q22.2 35.1 18.9 33.0Q15.0 30.6 13.4 28.1Q11.8 25.6 12.2 22.1Q12.5 19.3 14.2 16.9Q15.9 14.5 18.9 13.0Q21.9 11.6 26.2 11.6Q29.9 11.6 32.4 12.7Q34.9 13.9 36.1 15.8Q37.4 17.6 37.3 19.7Q37.3 21.1 36.5 22.0Q35.8 23.0 34.5 23.0Q33.4 23.0 32.7 22.4Q32.1 21.8 31.6 20.4L31.1 18.5Q30.5 16.2 29.1 15.1Q27.7 13.9 25.7 13.9Q23.8 13.9 22.4 14.7Q21.0 15.4 20.1 16.7Q19.3 17.9 19.1 19.5Q18.8 21.8 20.0 23.7Q21.2 25.7 24.4 27.9Q27.5 29.9 29.2 31.7Q30.8 33.5 31.3 35.3Q31.9 37.2 31.6 39.3Q31.4 42.0 29.8 44.1Q28.2 46.1 25.6 47.3Q23.0 48.4 19.7 48.4Z" fill="#d4af6a" stroke="#0a0c10" stroke-width="1.2" paint-order="stroke" stroke-linejoin="round"/></svg>