<svg xmlns="http://www.w3.org/2000/svg" viewBox="0 0 100 100"><rect width="100" height="100" rx="20" fill="#0a0c10"/><circle cx="50" cy="50" r="47.4" fill="none" stroke="#d4af6a" stroke-width="2.6"/><path d="M36.7 70.1Q36.5 71.0 36.8 71.5Q37.1 72.0 37.9 72.3L39.8 72.8Q40.5 73.1 41.0 73.5Q41.4 73.9 41.4 74.6Q41.4 75.5 40.7 76.0Q40.0 76.5 38.8 76.5H21.7Q20.4 76.5 19.9 76.0Q19.5 75.6 19.5 74.8Q19.5 74.0 20.0 73.5Q20.5 73.1 21.3 72.8L23.4 72.4Q24.4 72.1 25.0 71.5Q25.5 70.9 26.0 69.7Q26.3 68.3 27.0 65.8Q27.7 63.3 28.6 60.2Q29.4 57.0 30.4 53.5Q31.3 49.9 32.3 46.4Q33.2 42.8 34.0 39.6Q34.8 36.4 35.5 33.9Q36.1 31.4 36.4 30.0Q36.6 28.9 36.3 28.4Q36.0 27.9 35.1 27.7L33.1 27.2Q32.4 26.9 32.0 26.5Q31.6 26.1 31.6 25.5Q31.6 24.6 32.4 24.1Q33.1 23.6 34.4 23.6H51.7Q52.7 23.6 53.2 24.0Q53.7 24.4 53.7 25.2Q53.7 26.0 53.1 26.4Q52.6 26.8 51.6 27.2L49.5 27.8Q48.6 28.0 48.1 28.5Q47.5 29.0 47.2 30.2Q46.7 31.7 46.0 34.3Q45.2 37.0 44.3 40.4Q43.4 43.9 42.4 47.6Q41.4 51.3 40.4 55.0Q39.5 58.6 38.7 61.7Q37.9 64.9 37.3 67.1Q36.8 69.3 36.7 70.1ZM46.2 49.5 54.5 42.2 63.6 66.1Q64.4 68.1 65.1 69.1Q65.8 70.1 67.1 70.1Q67.8 70.1 68.4 69.8Q68.9 69.4 69.5 68.6Q70.5 67.8 71.4 68.1Q71.9 68.3 72.2 68.9Q72.5 69.5 72.0 70.6Q71.1 72.7 69.6 74.2Q68.1 75.8 66.1 76.6Q64.1 77.5 61.8 77.5Q58.8 77.5 57.2 76.0Q55.6 74.6 54.5 71.4ZM37.3 61.3 36.2 57.9 64.3 28.6Q66.5 26.5 68.2 25.1Q70.0 23.7 71.7 23.1Q73.4 22.5 75.2 22.5Q77.9 22.5 79.3 24.0Q80.7 25.5 80.5 27.8Q80.3 30.3 78.7 31.5Q77.1 32.7 74.8 32.7Q73.2 32.7 71.9 32.2Q70.7 31.8 69.2 31.8Q67.7 31.8 66.1 32.6Q64.4 33.4 62.7 35.3Z" fill="#d4af6a"/><path d="M40.0 65.4Q37.5 65.4 35.8 64.9Q34.1 64.4 33.0 63.7Q32.0 63.1 31.4 62.6Q30.8 62.1 30.4 62.1Q30.0 62.1 29.5 62.6Q29.0 63.0 28.4 63.6Q27.9 64.2 27.3 64.7Q26.8 65.1 26.2 65.1Q25.3 65.1 24.9 64.7Q24.5 64.2 24.6 63.2L25.9 52.9Q25.9 51.8 26.4 51.3Q26.9 50.8 27.6 50.8Q28.4 50.8 28.8 51.3Q29.3 51.8 29.6 52.7L30.3 55.7Q30.8 58.9 33.0 60.6Q35.3 62.3 38.3 62.3Q40.2 62.3 41.6 61.7Q43.1 61.0 44.0 59.7Q44.9 58.5 45.1 56.8Q45.5 54.3 44.2 52.1Q42.9 49.9 39.0 47.5Q34.5 44.7 32.7 41.8Q30.8 38.8 31.3 34.9Q31.7 31.6 33.6 28.8Q35.5 26.0 39.0 24.3Q42.5 22.6 47.5 22.6Q51.8 22.6 54.7 24.0Q57.6 25.3 59.0 27.5Q60.5 29.6 60.4 32.0Q60.3 33.7 59.5 34.7Q58.6 35.8 57.1 35.8Q55.9 35.8 55.1 35.1Q54.3 34.4 53.8 32.9L53.2 30.6Q52.5 28.0 50.9 26.7Q49.3 25.4 47.0 25.4Q44.8 25.4 43.1 26.2Q41.5 27.1 40.5 28.6Q39.5 30.0 39.3 31.8Q38.9 34.5 40.3 36.7Q41.7 39.0 45.5 41.5Q49.1 43.9 51.0 46.0Q52.9 48.0 53.5 50.2Q54.1 52.3 53.8 54.8Q53.5 57.9 51.7 60.3Q49.8 62.7 46.8 64.0Q43.8 65.4 40.0 65.4Z" fill="#d4af6a" stroke="#0a0c10" stroke-width="1.5" paint-order="stroke" stroke-linejoin="round"/><path d="M77.3 50.2Q76.8 53.1 75.3 55.4Q73.8 57.7 71.6 59.3Q69.4 60.9 66.6 61.7Q63.8 62.5 60.6 62.5Q57.7 62.5 55.8 62.0Q54.0 61.6 52.1 60.6L53.1 58.3Q54.5 59.1 56.0 59.6Q57.5 60.0 59.2 60.0Q61.9 60.0 64.0 58.9Q66.1 57.7 67.5 55.4Q68.9 53.1 69.5 49.7Q70.0 46.2 69.3 44.0Q68.7 41.8 67.0 40.7Q65.4 39.6 63.0 39.6Q61.5 39.6 60.6 40.3Q59.7 41.0 59.2 42.6Q59.1 43.0 58.8 44.4Q58.4 45.9 57.9 48.1Q57.3 50.3 56.6 52.9Q55.9 55.5 55.3 58.2Q54.6 60.8 54.0 63.2Q53.4 65.6 52.9 67.4Q52.4 69.2 52.2 70.0Q51.9 71.0 52.1 71.5Q52.4 72.0 52.9 72.1L55.1 72.5Q55.7 72.6 55.9 72.9Q56.2 73.2 56.2 73.6Q56.2 74.2 55.7 74.6Q55.2 75.1 54.4 75.1H40.9Q40.1 75.1 39.7 74.7Q39.4 74.4 39.4 73.8Q39.4 73.3 39.8 72.9Q40.2 72.5 40.8 72.4L42.1 72.1Q43.0 71.9 43.4 71.5Q43.8 71.1 44.1 70.2Q44.3 69.4 44.8 67.6Q45.3 65.8 46.0 63.4Q46.6 61.0 47.3 58.2Q48.1 55.5 48.7 52.8Q49.4 50.1 50.0 47.8Q50.6 45.4 51.0 43.8Q51.5 42.1 51.6 41.5Q51.7 40.8 51.5 40.4Q51.3 40.1 50.7 39.9L49.2 39.5Q48.7 39.3 48.4 39.1Q48.2 38.8 48.2 38.4Q48.2 37.7 48.6 37.3Q49.1 36.9 50.0 36.9H64.4Q67.8 36.9 70.4 37.9Q73.1 38.9 74.8 40.6Q76.5 42.4 77.2 44.8Q77.9 47.3 77.3 50.2Z" fill="#d4af6a" stroke="#0a0c10" stroke-width="1.5" paint-order="stroke" stroke-linejoin="round"/></svg>