<svg xmlns="http://www.w3.org/2000/svg" viewBox="0 0 100 100"><path d="M33.9 74.2Q33.7 75.3 34.1 75.9Q34.5 76.5 35.5 76.8L37.7 77.4Q38.6 77.8 39.1 78.3Q39.6 78.8 39.6 79.7Q39.6 80.7 38.8 81.3Q38.0 81.9 36.5 81.9H15.9Q14.3 81.9 13.8 81.3Q13.2 80.8 13.2 79.9Q13.2 78.9 13.9 78.3Q14.5 77.8 15.4 77.5L18.0 76.9Q19.2 76.6 19.9 75.9Q20.6 75.1 21.1 73.7Q21.5 72.0 22.3 69.0Q23.2 66.1 24.2 62.2Q25.3 58.4 26.4 54.2Q27.5 49.9 28.6 45.6Q29.8 41.4 30.8 37.5Q31.8 33.7 32.5 30.6Q33.2 27.6 33.6 25.9Q33.9 24.7 33.5 24.0Q33.1 23.4 32.1 23.1L29.7 22.5Q28.8 22.2 28.3 21.7Q27.8 21.2 27.8 20.5Q27.8 19.4 28.8 18.8Q29.7 18.2 31.3 18.2H52.0Q53.3 18.2 53.8 18.7Q54.4 19.2 54.4 20.2Q54.4 21.1 53.8 21.6Q53.1 22.1 52.0 22.6L49.4 23.2Q48.4 23.5 47.7 24.1Q47.0 24.7 46.6 26.1Q46.0 27.9 45.1 31.1Q44.2 34.3 43.1 38.5Q42.0 42.6 40.8 47.1Q39.6 51.6 38.5 56.0Q37.3 60.3 36.4 64.1Q35.4 67.9 34.8 70.5Q34.1 73.2 33.9 74.2ZM45.4 49.5 55.4 40.6 66.4 69.4Q67.3 71.8 68.2 73.0Q69.1 74.3 70.6 74.3Q71.4 74.3 72.1 73.8Q72.8 73.3 73.5 72.4Q74.6 71.5 75.7 71.8Q76.3 72.0 76.7 72.7Q77.0 73.5 76.5 74.8Q75.4 77.3 73.6 79.2Q71.8 81.0 69.3 82.1Q66.9 83.1 64.2 83.1Q60.6 83.1 58.7 81.3Q56.7 79.6 55.4 75.8ZM34.7 63.6 33.4 59.5 67.2 24.3Q69.8 21.7 72.0 20.0Q74.1 18.4 76.1 17.6Q78.1 16.9 80.3 16.9Q83.5 16.9 85.3 18.7Q87.0 20.6 86.7 23.3Q86.5 26.2 84.6 27.7Q82.6 29.2 79.8 29.2Q77.9 29.2 76.4 28.6Q74.9 28.1 73.1 28.1Q71.3 28.1 69.3 29.1Q67.4 30.1 65.2 32.3Z" fill="#d4af6a"/><path d="M39.5 69.7Q36.4 69.7 34.4 69.1Q32.4 68.5 31.1 67.8Q29.8 67.0 29.1 66.4Q28.4 65.8 27.9 65.8Q27.5 65.8 26.9 66.4Q26.3 66.9 25.6 67.6Q24.9 68.3 24.2 68.9Q23.6 69.4 22.9 69.4Q21.9 69.4 21.4 68.9Q20.9 68.3 21.0 67.1L22.5 54.7Q22.6 53.4 23.1 52.8Q23.7 52.2 24.6 52.2Q25.5 52.2 26.0 52.7Q26.6 53.3 27.0 54.5L27.8 58.1Q28.5 62.0 31.1 64.0Q33.8 66.1 37.4 66.1Q39.7 66.1 41.4 65.3Q43.2 64.4 44.3 62.9Q45.3 61.4 45.6 59.4Q46.2 56.4 44.6 53.8Q43.0 51.1 38.3 48.2Q32.9 44.8 30.7 41.3Q28.4 37.8 29.0 33.0Q29.4 29.1 31.8 25.7Q34.1 22.4 38.3 20.3Q42.5 18.3 48.5 18.3Q53.7 18.3 57.1 19.9Q60.6 21.5 62.4 24.1Q64.2 26.7 64.0 29.6Q64.0 31.5 62.9 32.9Q61.9 34.2 60.1 34.2Q58.6 34.2 57.7 33.3Q56.7 32.5 56.1 30.6L55.4 27.9Q54.5 24.7 52.6 23.1Q50.7 21.6 47.9 21.6Q45.2 21.6 43.3 22.6Q41.3 23.7 40.1 25.4Q38.9 27.1 38.6 29.3Q38.2 32.6 39.9 35.3Q41.6 38.0 46.1 41.0Q50.4 43.9 52.7 46.4Q55.0 48.9 55.7 51.4Q56.5 54.0 56.1 57.0Q55.7 60.8 53.5 63.6Q51.3 66.5 47.7 68.1Q44.1 69.7 39.5 69.7Z" fill="#d4af6a" stroke="#0a0c10" stroke-width="1.7" paint-order="stroke" stroke-linejoin="round"/><path d="M81.1 49.1Q80.5 52.5 78.7 55.3Q76.9 58.0 74.2 59.9Q71.6 61.9 68.2 62.8Q64.9 63.8 61.0 63.8Q57.6 63.8 55.3 63.3Q53.0 62.7 50.7 61.6L52.0 58.7Q53.7 59.8 55.5 60.3Q57.3 60.8 59.3 60.8Q62.6 60.8 65.1 59.4Q67.6 58.1 69.3 55.3Q71.1 52.5 71.7 48.4Q72.4 44.2 71.6 41.5Q70.7 38.9 68.8 37.5Q66.8 36.2 64.0 36.2Q62.1 36.2 61.0 37.1Q59.9 38.0 59.4 39.9Q59.3 40.3 58.8 42.1Q58.4 43.8 57.7 46.5Q57.0 49.1 56.2 52.2Q55.4 55.4 54.6 58.6Q53.8 61.8 53.1 64.7Q52.3 67.6 51.8 69.7Q51.2 71.9 50.9 72.8Q50.6 74.1 50.9 74.7Q51.1 75.2 51.8 75.4L54.4 75.8Q55.1 76.0 55.4 76.3Q55.7 76.7 55.7 77.2Q55.7 77.9 55.1 78.4Q54.6 78.9 53.5 78.9H37.4Q36.3 78.9 35.9 78.5Q35.5 78.1 35.5 77.5Q35.5 76.8 36.0 76.4Q36.5 75.9 37.2 75.7L38.8 75.4Q39.8 75.2 40.3 74.7Q40.7 74.2 41.1 73.1Q41.4 72.2 42.0 70.0Q42.6 67.8 43.4 64.9Q44.2 62.0 45.1 58.7Q45.9 55.4 46.8 52.2Q47.6 48.9 48.3 46.1Q49.0 43.3 49.5 41.3Q50.0 39.3 50.2 38.6Q50.3 37.7 50.1 37.3Q49.8 36.8 49.1 36.6L47.3 36.2Q46.7 36.0 46.4 35.6Q46.1 35.3 46.1 34.8Q46.1 34.0 46.6 33.5Q47.2 33.1 48.3 33.1H65.6Q69.7 33.1 72.9 34.2Q76.0 35.4 78.1 37.5Q80.2 39.6 81.0 42.6Q81.8 45.5 81.1 49.1Z" fill="#d4af6a" stroke="#0a0c10" stroke-width="1.7" paint-order="stroke" stroke-linejoin="round"/></svg>