<svg xmlns="http://www.w3.org/2000/svg" viewBox="0 0 100 100"><rect width="100" height="100" rx="20" fill="#0a0c10"/><circle cx="50.0" cy="50.0" r="47.4" fill="none" stroke="#d4af6a" stroke-width="3"/><path d="M34.5 60.6Q33.2 60.6 32.4 60.4Q31.5 60.1 31.0 59.8Q30.5 59.5 30.2 59.2Q29.9 59.0 29.7 59.0Q29.5 59.0 29.3 59.2Q29.0 59.4 28.7 59.7Q28.5 60.0 28.2 60.3Q27.9 60.5 27.6 60.5Q27.2 60.5 27.0 60.2Q26.8 60.0 26.8 59.5L27.5 54.4Q27.5 53.9 27.7 53.6Q28.0 53.4 28.3 53.4Q28.7 53.4 28.9 53.6Q29.1 53.8 29.3 54.3L29.6 55.8Q29.9 57.4 31.0 58.3Q32.1 59.1 33.6 59.1Q34.6 59.1 35.3 58.8Q36.0 58.4 36.4 57.8Q36.9 57.2 37.0 56.4Q37.2 55.1 36.6 54.0Q35.9 52.9 34.0 51.7Q31.8 50.3 30.8 48.9Q29.9 47.4 30.1 45.5Q30.3 43.9 31.3 42.5Q32.3 41.1 34.0 40.2Q35.7 39.4 38.2 39.4Q40.3 39.4 41.7 40.1Q43.2 40.7 43.9 41.8Q44.6 42.9 44.6 44.0Q44.6 44.9 44.1 45.4Q43.7 45.9 43.0 45.9Q42.3 45.9 42.0 45.6Q41.6 45.3 41.3 44.5L41.0 43.4Q40.7 42.0 39.9 41.4Q39.1 40.8 37.9 40.8Q36.8 40.8 36.0 41.2Q35.2 41.6 34.7 42.3Q34.2 43.1 34.1 43.9Q33.9 45.3 34.6 46.4Q35.3 47.5 37.2 48.8Q39.0 49.9 39.9 51.0Q40.8 52.0 41.2 53.1Q41.5 54.1 41.3 55.4Q41.2 56.9 40.3 58.1Q39.4 59.3 37.9 59.9Q36.4 60.6 34.5 60.6Z M45.3 57.8Q45.2 58.1 45.3 58.3Q45.5 58.5 45.8 58.6L46.5 58.8Q46.8 58.9 46.9 59.1Q47.1 59.2 47.1 59.5Q47.1 59.9 46.9 60.1Q46.6 60.3 46.1 60.3H39.5Q39.0 60.3 38.8 60.1Q38.6 59.9 38.6 59.6Q38.6 59.3 38.8 59.1Q39.0 58.9 39.3 58.8L40.2 58.7Q40.6 58.6 40.8 58.3Q41.0 58.1 41.2 57.6Q41.3 57.1 41.6 56.1Q41.8 55.2 42.2 53.9Q42.5 52.7 42.9 51.3Q43.2 50.0 43.6 48.6Q43.9 47.2 44.3 46.0Q44.6 44.7 44.8 43.8Q45.1 42.8 45.2 42.2Q45.3 41.9 45.1 41.6Q45.0 41.4 44.7 41.4L43.9 41.2Q43.6 41.1 43.5 40.9Q43.3 40.8 43.3 40.5Q43.3 40.2 43.6 40.0Q43.9 39.8 44.4 39.8H51.1Q51.5 39.8 51.7 39.9Q51.9 40.1 51.9 40.4Q51.9 40.7 51.7 40.9Q51.5 41.0 51.1 41.2L50.3 41.4Q49.9 41.5 49.7 41.7Q49.5 41.9 49.4 42.3Q49.2 42.9 48.9 43.9Q48.6 45.0 48.2 46.3Q47.9 47.6 47.5 49.1Q47.1 50.5 46.7 51.9Q46.4 53.3 46.1 54.5Q45.8 55.7 45.6 56.6Q45.3 57.5 45.3 57.8ZM49.0 49.8 52.2 47.0 55.7 56.2Q56.0 57.0 56.3 57.4Q56.6 57.8 57.1 57.8Q57.3 57.8 57.6 57.6Q57.8 57.5 58.0 57.2Q58.4 56.9 58.7 57.0Q58.9 57.1 59.0 57.3Q59.1 57.5 59.0 58.0Q58.6 58.8 58.0 59.4Q57.4 60.0 56.7 60.3Q55.9 60.6 55.0 60.6Q53.9 60.6 53.2 60.1Q52.6 59.5 52.2 58.3ZM45.5 54.4 45.1 53.0 56.0 41.7Q56.8 40.9 57.5 40.4Q58.2 39.8 58.8 39.6Q59.5 39.4 60.2 39.4Q61.2 39.4 61.8 40.0Q62.3 40.5 62.3 41.4Q62.2 42.4 61.6 42.8Q60.9 43.3 60.0 43.3Q59.4 43.3 58.9 43.1Q58.5 43.0 57.9 43.0Q57.3 43.0 56.7 43.3Q56.0 43.6 55.4 44.3Z M74.6 46.9Q74.3 48.5 73.5 49.7Q72.7 50.9 71.5 51.8Q70.3 52.6 68.8 53.1Q67.3 53.5 65.6 53.5Q64.0 53.5 63.0 53.3Q62.0 53.0 61.0 52.5L61.6 51.2Q62.3 51.7 63.1 51.9Q63.9 52.2 64.8 52.2Q66.3 52.2 67.4 51.6Q68.5 50.9 69.3 49.7Q70.1 48.5 70.4 46.6Q70.7 44.7 70.3 43.6Q69.9 42.4 69.0 41.8Q68.2 41.2 66.9 41.2Q66.1 41.2 65.6 41.6Q65.1 42.0 64.9 42.8Q64.8 43.0 64.6 43.8Q64.4 44.6 64.1 45.8Q63.8 46.9 63.4 48.3Q63.1 49.7 62.7 51.2Q62.4 52.6 62.0 53.9Q61.7 55.2 61.5 56.1Q61.2 57.1 61.1 57.5Q60.9 58.1 61.0 58.3Q61.2 58.6 61.5 58.7L62.6 58.9Q62.9 58.9 63.1 59.1Q63.2 59.3 63.2 59.5Q63.2 59.8 63.0 60.0Q62.7 60.3 62.2 60.3H55.0Q54.5 60.3 54.4 60.1Q54.2 59.9 54.2 59.6Q54.2 59.3 54.4 59.1Q54.6 58.9 54.9 58.8L55.7 58.7Q56.1 58.6 56.3 58.4Q56.5 58.1 56.7 57.7Q56.8 57.2 57.1 56.3Q57.4 55.3 57.7 54.0Q58.1 52.7 58.5 51.2Q58.8 49.8 59.2 48.3Q59.6 46.9 59.9 45.6Q60.2 44.3 60.5 43.4Q60.7 42.6 60.7 42.2Q60.8 41.9 60.7 41.7Q60.6 41.5 60.3 41.4L59.5 41.2Q59.2 41.1 59.0 40.9Q58.9 40.8 58.9 40.5Q58.9 40.2 59.2 40.0Q59.4 39.8 59.9 39.8H67.7Q69.5 39.8 70.9 40.3Q72.3 40.8 73.2 41.8Q74.2 42.7 74.5 44.0Q74.9 45.3 74.6 46.9Z" fill="#d4af6a"/></svg>