<svg xmlns="http://www.w3.org/2000/svg" viewBox="0 0 100 100"><rect width="100" height="100" rx="20" fill="#0a0c10"/><circle cx="50" cy="50" r="47.4" fill="none" stroke="#d4af6a" stroke-width="3"/><g transform="translate(20.7 28.9) scale(0.4691)"><path d="M29.0 81.2Q24.7 81.2 21.8 80.3Q18.9 79.5 17.1 78.4Q15.4 77.3 14.3 76.5Q13.3 75.7 12.7 75.7Q12.0 75.7 11.2 76.5Q10.3 77.2 9.4 78.2Q8.4 79.2 7.5 80.0Q6.5 80.8 5.6 80.8Q4.1 80.8 3.4 80.0Q2.7 79.2 2.9 77.5L5.0 60.0Q5.1 58.2 5.9 57.4Q6.8 56.5 8.0 56.5Q9.2 56.5 10.0 57.3Q10.8 58.1 11.4 59.8L12.5 64.8Q13.4 70.3 17.2 73.2Q20.9 76.0 26.1 76.0Q29.2 76.0 31.7 74.9Q34.1 73.8 35.7 71.6Q37.2 69.5 37.6 66.7Q38.4 62.5 36.1 58.7Q33.9 55.0 27.2 50.8Q19.7 46.1 16.5 41.1Q13.4 36.2 14.2 29.5Q14.8 23.9 18.1 19.2Q21.4 14.5 27.3 11.6Q33.2 8.7 41.7 8.7Q48.9 8.7 53.8 11.0Q58.8 13.3 61.2 16.9Q63.7 20.6 63.6 24.6Q63.5 27.4 62.0 29.2Q60.5 31.1 58.0 31.1Q55.9 31.1 54.5 29.9Q53.2 28.8 52.4 26.0L51.4 22.2Q50.2 17.8 47.4 15.5Q44.7 13.3 40.8 13.3Q37.1 13.3 34.2 14.8Q31.5 16.3 29.8 18.7Q28.2 21.2 27.8 24.2Q27.1 28.8 29.5 32.6Q31.9 36.4 38.2 40.8Q44.3 44.8 47.5 48.3Q50.8 51.8 51.8 55.4Q52.9 59.0 52.4 63.2Q51.9 68.6 48.8 72.6Q45.7 76.7 40.6 78.9Q35.5 81.2 29.0 81.2Z M56.3 72.9Q56.1 73.9 56.4 74.5Q56.8 75.0 57.7 75.3L59.8 75.9Q60.6 76.2 61.1 76.6Q61.5 77.1 61.5 77.9Q61.5 78.9 60.8 79.4Q60.0 80.0 58.7 80.0H39.7Q38.2 80.0 37.7 79.5Q37.2 79.0 37.2 78.2Q37.2 77.3 37.8 76.7Q38.3 76.2 39.2 75.9L41.6 75.4Q42.7 75.1 43.3 74.4Q43.9 73.7 44.4 72.4Q44.8 70.9 45.6 68.1Q46.3 65.4 47.3 61.9Q48.3 58.3 49.3 54.4Q50.4 50.5 51.4 46.5Q52.4 42.6 53.4 39.0Q54.3 35.5 55.0 32.7Q55.6 29.9 56.0 28.3Q56.2 27.2 55.9 26.6Q55.5 26.0 54.6 25.7L52.4 25.2Q51.5 24.9 51.1 24.5Q50.7 24.0 50.7 23.3Q50.7 22.3 51.5 21.8Q52.3 21.2 53.8 21.2H73.0Q74.1 21.2 74.7 21.7Q75.2 22.2 75.2 23.0Q75.2 23.9 74.6 24.3Q74.0 24.8 72.9 25.2L70.6 25.9Q69.6 26.1 69.0 26.7Q68.4 27.2 68.0 28.5Q67.5 30.2 66.6 33.1Q65.8 36.1 64.8 39.9Q63.7 43.8 62.6 47.9Q61.5 52.0 60.5 56.1Q59.4 60.1 58.5 63.6Q57.6 67.1 57.1 69.5Q56.5 72.0 56.3 72.9ZM66.9 50.1 76.1 41.9 86.3 68.5Q87.1 70.7 87.9 71.8Q88.7 72.9 90.1 72.9Q90.9 72.9 91.5 72.5Q92.2 72.1 92.8 71.3Q93.8 70.4 94.9 70.7Q95.4 70.8 95.8 71.5Q96.1 72.2 95.6 73.4Q94.6 75.8 92.9 77.5Q91.2 79.2 89.0 80.1Q86.7 81.1 84.2 81.1Q80.9 81.1 79.1 79.5Q77.3 77.9 76.1 74.3ZM57.0 63.1 55.8 59.3 87.0 26.8Q89.4 24.4 91.4 22.9Q93.3 21.4 95.2 20.7Q97.1 20.0 99.1 20.0Q102.1 20.0 103.7 21.7Q105.3 23.4 105.0 25.9Q104.8 28.6 103.0 30.0Q101.2 31.3 98.6 31.3Q96.9 31.3 95.5 30.8Q94.1 30.3 92.5 30.3Q90.8 30.3 89.0 31.2Q87.2 32.2 85.2 34.3Z M121.9 48.1Q121.2 51.8 119.3 54.7Q117.4 57.7 114.5 59.7Q111.6 61.8 108.1 62.8Q104.5 63.9 100.4 63.9Q96.7 63.9 94.3 63.3Q91.8 62.7 89.4 61.5L90.8 58.4Q92.5 59.5 94.5 60.1Q96.4 60.6 98.6 60.6Q102.0 60.6 104.7 59.2Q107.4 57.7 109.3 54.7Q111.1 51.8 111.8 47.4Q112.5 42.9 111.6 40.0Q110.7 37.2 108.6 35.8Q106.5 34.4 103.5 34.4Q101.5 34.4 100.4 35.3Q99.2 36.3 98.6 38.3Q98.5 38.8 98.0 40.6Q97.6 42.5 96.8 45.3Q96.1 48.1 95.3 51.5Q94.4 54.8 93.5 58.3Q92.7 61.7 91.9 64.8Q91.1 67.9 90.5 70.2Q89.9 72.5 89.6 73.5Q89.2 74.8 89.5 75.4Q89.8 76.0 90.5 76.2L93.3 76.7Q94.0 76.8 94.4 77.2Q94.7 77.6 94.7 78.2Q94.7 79.0 94.1 79.5Q93.5 80.0 92.4 80.0H75.1Q74.0 80.0 73.6 79.6Q73.1 79.1 73.1 78.4Q73.1 77.7 73.7 77.3Q74.2 76.8 74.9 76.6L76.6 76.2Q77.7 76.0 78.2 75.4Q78.7 74.9 79.1 73.8Q79.4 72.8 80.1 70.4Q80.7 68.1 81.6 65.0Q82.4 61.9 83.3 58.4Q84.2 54.9 85.1 51.4Q86.0 47.9 86.8 44.9Q87.6 41.9 88.1 39.8Q88.6 37.7 88.8 36.9Q88.9 36.0 88.7 35.5Q88.4 35.0 87.7 34.8L85.7 34.3Q85.0 34.1 84.7 33.7Q84.4 33.4 84.4 32.8Q84.4 31.9 85.0 31.5Q85.6 31.0 86.8 31.0H105.3Q109.7 31.0 113.0 32.2Q116.4 33.5 118.6 35.7Q120.9 38.0 121.7 41.1Q122.6 44.3 121.9 48.1Z" fill="#d4af6a"/></g></svg>