<svg xmlns="http://www.w3.org/2000/svg" viewBox="0 0 96 64"><path d="M20.8 50.6Q18.6 50.6 17.1 50.1Q15.7 49.7 14.8 49.1Q13.9 48.6 13.3 48.2Q12.8 47.7 12.5 47.7Q12.1 47.7 11.7 48.1Q11.3 48.5 10.8 49.0Q10.3 49.6 9.8 49.9Q9.3 50.3 8.8 50.3Q8.1 50.3 7.7 49.9Q7.4 49.5 7.5 48.7L8.6 39.7Q8.6 38.8 9.0 38.3Q9.5 37.9 10.1 37.9Q10.7 37.9 11.1 38.3Q11.5 38.7 11.8 39.6L12.4 42.2Q12.9 45.0 14.8 46.4Q16.7 47.9 19.3 47.9Q21.0 47.9 22.2 47.3Q23.5 46.7 24.3 45.7Q25.0 44.6 25.2 43.1Q25.6 41.0 24.5 39.1Q23.4 37.1 19.9 35.0Q16.1 32.6 14.5 30.1Q12.8 27.5 13.2 24.1Q13.6 21.3 15.3 18.8Q17.0 16.4 20.0 14.9Q23.0 13.4 27.3 13.4Q31.0 13.4 33.6 14.6Q36.1 15.8 37.3 17.7Q38.6 19.5 38.5 21.6Q38.5 23.0 37.7 24.0Q37.0 24.9 35.7 24.9Q34.6 24.9 33.9 24.3Q33.3 23.7 32.8 22.3L32.3 20.4Q31.7 18.1 30.3 17.0Q28.9 15.8 26.9 15.8Q25.0 15.8 23.5 16.6Q22.1 17.3 21.3 18.6Q20.4 19.8 20.2 21.4Q19.9 23.8 21.1 25.7Q22.3 27.6 25.6 29.9Q28.7 31.9 30.3 33.7Q32.0 35.5 32.5 37.4Q33.1 39.2 32.8 41.4Q32.5 44.1 31.0 46.2Q29.4 48.2 26.8 49.4Q24.1 50.6 20.8 50.6Z M39.8 45.6Q39.6 46.2 39.8 46.6Q40.1 46.9 40.6 47.1L41.9 47.4Q42.4 47.6 42.7 47.9Q43.0 48.2 43.0 48.7Q43.0 49.3 42.5 49.6Q42.0 49.9 41.2 49.9H29.6Q28.7 49.9 28.4 49.6Q28.1 49.3 28.1 48.8Q28.1 48.3 28.5 47.9Q28.8 47.6 29.3 47.5L30.8 47.2Q31.5 47.0 31.8 46.6Q32.2 46.1 32.5 45.3Q32.8 44.4 33.2 42.7Q33.7 41.0 34.3 38.9Q34.9 36.7 35.5 34.3Q36.1 31.9 36.8 29.5Q37.4 27.1 38.0 25.0Q38.5 22.8 38.9 21.1Q39.3 19.4 39.6 18.4Q39.7 17.7 39.5 17.4Q39.3 17.0 38.7 16.9L37.4 16.5Q36.8 16.4 36.6 16.1Q36.3 15.8 36.3 15.4Q36.3 14.8 36.8 14.5Q37.4 14.1 38.2 14.1H49.9Q50.6 14.1 51.0 14.4Q51.3 14.7 51.3 15.2Q51.3 15.7 50.9 16.0Q50.6 16.3 49.9 16.6L48.5 17.0Q47.9 17.1 47.5 17.4Q47.1 17.8 46.9 18.6Q46.6 19.6 46.1 21.4Q45.5 23.2 44.9 25.5Q44.3 27.9 43.6 30.4Q43.0 32.9 42.3 35.4Q41.7 37.8 41.1 39.9Q40.6 42.1 40.2 43.6Q39.9 45.1 39.8 45.6ZM46.2 31.7 51.8 26.7 58.0 42.9Q58.5 44.3 59.0 45.0Q59.5 45.6 60.4 45.6Q60.8 45.6 61.2 45.4Q61.6 45.1 62.0 44.6Q62.6 44.1 63.3 44.3Q63.6 44.4 63.8 44.8Q64.0 45.2 63.7 45.9Q63.1 47.4 62.1 48.4Q61.0 49.5 59.7 50.0Q58.3 50.6 56.8 50.6Q54.8 50.6 53.7 49.6Q52.6 48.7 51.8 46.5ZM40.2 39.6 39.4 37.3 58.5 17.5Q60.0 16.1 61.1 15.1Q62.3 14.2 63.5 13.8Q64.6 13.4 65.8 13.4Q67.7 13.4 68.6 14.4Q69.6 15.4 69.4 17.0Q69.3 18.6 68.2 19.5Q67.1 20.3 65.6 20.3Q64.5 20.3 63.6 20.0Q62.8 19.7 61.8 19.7Q60.8 19.7 59.7 20.2Q58.6 20.8 57.4 22.1Z M91.0 26.6Q90.5 29.3 89.1 31.5Q87.7 33.6 85.6 35.1Q83.5 36.6 80.9 37.4Q78.3 38.1 75.3 38.1Q72.6 38.1 70.8 37.7Q69.0 37.3 67.2 36.4L68.2 34.1Q69.5 35.0 71.0 35.4Q72.4 35.8 74.0 35.8Q76.5 35.8 78.5 34.7Q80.5 33.6 81.8 31.5Q83.1 29.3 83.6 26.1Q84.2 22.8 83.5 20.7Q82.9 18.6 81.3 17.6Q79.8 16.6 77.6 16.6Q76.1 16.6 75.3 17.3Q74.4 17.9 74.0 19.5Q73.9 19.8 73.6 21.1Q73.2 22.5 72.7 24.6Q72.2 26.6 71.5 29.1Q70.9 31.5 70.3 34.0Q69.7 36.6 69.1 38.8Q68.5 41.1 68.0 42.7Q67.6 44.4 67.4 45.2Q67.1 46.2 67.3 46.6Q67.5 47.0 68.0 47.2L70.1 47.5Q70.7 47.6 70.9 47.9Q71.1 48.2 71.1 48.6Q71.1 49.2 70.7 49.6Q70.2 49.9 69.4 49.9H56.8Q56.0 49.9 55.7 49.6Q55.4 49.3 55.4 48.8Q55.4 48.3 55.7 47.9Q56.1 47.6 56.7 47.4L57.9 47.2Q58.7 47.0 59.1 46.6Q59.4 46.2 59.7 45.4Q60.0 44.6 60.4 43.0Q60.9 41.3 61.5 39.0Q62.2 36.7 62.8 34.1Q63.5 31.6 64.1 29.0Q64.8 26.5 65.4 24.3Q65.9 22.1 66.3 20.5Q66.7 19.0 66.8 18.4Q66.9 17.7 66.7 17.4Q66.5 17.1 66.0 16.9L64.6 16.5Q64.1 16.4 63.8 16.1Q63.6 15.8 63.6 15.4Q63.6 14.8 64.0 14.5Q64.5 14.1 65.4 14.1H78.9Q82.1 14.1 84.5 15.0Q87.0 15.9 88.6 17.6Q90.3 19.2 90.9 21.5Q91.5 23.8 91.0 26.6Z" fill="#d4af6a"/></svg>